<?xml version="1.0" standalone="no"?>
<!DOCTYPE svg PUBLIC "-//W3C//DTD SVG 20010904//EN"
 "http://www.w3.org/TR/2001/REC-SVG-20010904/DTD/svg10.dtd">
<svg version="1.0" xmlns="http://www.w3.org/2000/svg"
 width="564.000000pt" height="564.000000pt" viewBox="0 0 564.000000 564.000000"
 preserveAspectRatio="xMidYMid meet">
<metadata>
Created by potrace 1.16, written by Peter Selinger 2001-2019
</metadata>
<g transform="translate(0.000000,564.000000) scale(0.100000,-0.100000)"
fill="#000000" stroke="none">
<path d="M2230 5238 c-13 -29 -85 -188 -160 -353 -309 -673 -780 -1706 -780
-1710 0 -3 112 -5 248 -5 l248 0 18 38 c22 44 379 826 847 1854 54 120 99 220
99 223 0 3 -112 5 -249 5 l-249 0 -22 -52z"/>
<path d="M2912 3943 l3 -245 580 -264 580 -264 483 0 c334 0 482 3 482 11 0 6
-39 28 -87 51 -49 22 -304 141 -568 265 -726 340 -895 420 -1198 561 l-277
130 2 -245z"/>
<path d="M477 3093 c-12 -11 -8 -21 13 -26 33 -8 40 -50 39 -220 -1 -192 -5
-211 -42 -215 -15 -2 -27 -10 -27 -18 0 -12 35 -14 219 -14 l218 0 7 46 c9 72
8 106 -6 102 -7 -3 -16 -18 -20 -34 -4 -17 -17 -39 -27 -49 -44 -39 -189 -39
-218 1 -10 13 -13 65 -13 195 0 190 5 209 52 209 11 0 18 5 16 13 -5 13 -199
23 -211 10z"/>
<path d="M980 3085 c0 -8 6 -15 14 -15 8 0 22 -7 30 -16 13 -13 16 -46 16
-208 0 -202 -2 -209 -44 -217 -11 -2 -21 -10 -24 -16 -3 -10 45 -13 217 -13
l221 0 0 29 c0 15 3 49 6 75 9 60 -9 61 -35 1 -24 -54 -51 -67 -137 -67 -100
-1 -114 17 -114 143 l0 59 45 0 c35 0 52 -6 70 -25 14 -13 25 -29 25 -35 0 -5
5 -10 10 -10 6 0 10 37 10 90 0 50 -4 90 -8 90 -5 0 -15 -15 -23 -32 -11 -27
-22 -34 -57 -41 -67 -13 -72 -8 -72 77 0 107 -1 106 89 106 90 0 122 -14 135
-58 5 -17 15 -32 23 -32 11 0 13 14 11 63 l-3 62 -202 3 c-176 2 -203 0 -203
-13z"/>
<path d="M1671 3083 c-26 -9 -65 -36 -92 -63 -181 -181 -13 -464 248 -419 211
37 292 262 151 416 -71 76 -200 104 -307 66z m179 -42 c70 -37 109 -174 81
-279 -31 -115 -150 -161 -248 -97 -67 44 -91 217 -42 305 46 84 131 113 209
71z"/>
<path d="M2233 3079 c-80 -39 -96 -139 -33 -204 18 -18 67 -48 109 -66 89 -38
121 -63 121 -96 0 -33 -40 -70 -85 -79 -61 -11 -125 21 -153 76 -12 25 -27 47
-32 48 -12 4 -12 -102 0 -138 l8 -25 7 23 c7 21 9 22 31 7 95 -62 267 -19 295
75 27 89 -21 150 -159 205 -110 44 -136 82 -87 130 50 51 146 26 175 -45 20
-47 40 -39 39 18 0 26 -4 56 -9 67 -7 18 -9 18 -15 3 -6 -16 -9 -16 -46 2 -49
26 -113 25 -166 -1z"/>
<path d="M2988 3093 c-15 -4 -18 -16 -18 -69 0 -67 13 -86 23 -34 11 52 39 70
112 70 60 0 65 -2 71 -24 3 -13 4 -104 2 -201 -3 -161 -5 -178 -22 -191 -11
-8 -30 -14 -43 -14 -14 0 -23 -6 -23 -15 0 -13 22 -15 136 -15 103 0 135 3
132 12 -3 7 -19 16 -38 19 -18 4 -36 13 -41 21 -5 7 -8 101 -6 208 l2 195 62
3 c56 3 66 0 88 -22 14 -14 25 -37 25 -51 0 -16 6 -25 15 -25 13 0 15 12 13
68 l-3 67 -235 2 c-129 0 -243 -1 -252 -4z"/>
<path d="M3573 3093 c-28 -5 -30 -23 -3 -23 34 0 40 -32 40 -228 0 -197 -2
-205 -44 -213 -11 -2 -21 -10 -24 -16 -3 -10 45 -13 217 -13 l221 0 0 29 c0
15 3 49 6 75 8 59 -10 62 -32 6 -21 -52 -58 -71 -139 -72 -101 0 -115 17 -115
143 l0 59 45 0 c47 0 72 -16 102 -66 10 -15 12 -1 12 79 1 53 -3 97 -7 97 -5
0 -15 -15 -23 -32 -11 -27 -22 -34 -57 -41 -67 -13 -72 -8 -72 77 0 107 -1
106 89 106 90 0 122 -14 135 -58 5 -17 15 -32 23 -32 11 0 13 14 11 63 l-3 62
-180 1 c-99 1 -190 -1 -202 -3z"/>
<path d="M4238 3085 c-175 -67 -222 -318 -81 -434 72 -59 205 -72 294 -29 52
26 59 26 59 -4 0 -10 7 -18 15 -18 12 0 15 16 15 85 0 98 -13 110 -45 43 -12
-24 -36 -53 -55 -66 -30 -20 -45 -23 -102 -20 -58 3 -72 8 -97 32 -39 38 -55
85 -55 166 0 145 67 229 172 217 65 -7 107 -44 136 -122 9 -25 24 16 29 83 5
58 3 72 -8 72 -8 0 -18 -7 -23 -16 -8 -15 -12 -15 -43 2 -45 23 -162 28 -211
9z"/>
<path d="M4636 3093 c-12 -12 -6 -23 12 -23 39 0 42 -17 42 -216 0 -106 -3
-199 -6 -208 -3 -9 -17 -16 -30 -16 -15 0 -24 -6 -24 -15 0 -12 20 -15 116
-15 88 0 115 3 112 13 -3 6 -13 14 -24 16 -38 7 -44 21 -44 112 l0 89 120 0
120 0 0 -74 c0 -95 -11 -124 -46 -128 -15 -2 -29 -9 -32 -15 -3 -10 25 -13
118 -13 93 0 121 3 118 13 -3 6 -13 14 -24 15 -40 7 -44 28 -44 223 0 157 3
190 16 203 8 9 22 16 30 16 22 0 16 17 -8 24 -13 3 -62 6 -110 6 -72 0 -88 -3
-88 -15 0 -8 9 -15 20 -15 35 0 51 -40 48 -121 l-3 -74 -117 -3 -118 -3 0 92
0 91 30 11 c32 12 38 22 17 30 -19 7 -194 7 -201 0z"/>
<path d="M650 1779 c-173 -379 -317 -694 -318 -700 -3 -6 87 -8 249 -7 l252 3
303 665 c167 366 310 680 319 698 l15 32 -253 0 -252 0 -315 -691z"/>
<path d="M3188 2342 l-277 -127 -1 -244 c0 -191 3 -242 13 -238 13 5 998 467
1362 638 l210 99 -515 -1 -515 -1 -277 -126z"/>
</g>
</svg>
