<?xml version="1.0" encoding="UTF-8"?>
<!DOCTYPE svg PUBLIC "-//W3C//DTD SVG 1.1//EN" "http://www.w3.org/Graphics/SVG/1.1/DTD/svg11.dtd">
<svg xmlns="http://www.w3.org/2000/svg" version="1.1" width="563px" height="563px" style="shape-rendering:geometricPrecision; text-rendering:geometricPrecision; image-rendering:optimizeQuality; fill-rule:evenodd; clip-rule:evenodd" xmlns:xlink="http://www.w3.org/1999/xlink">
<g><path style="opacity:1" fill="#fefefe" d="M -0.5,-0.5 C 187.167,-0.5 374.833,-0.5 562.5,-0.5C 562.5,187.167 562.5,374.833 562.5,562.5C 374.833,562.5 187.167,562.5 -0.5,562.5C -0.5,374.833 -0.5,187.167 -0.5,-0.5 Z"/></g>
<g><path style="opacity:1" fill="#010101" d="M 223.5,33.5 C 240.167,33.5 256.833,33.5 273.5,33.5C 242.233,104.038 210.399,174.372 178,244.5C 161.241,245.658 144.407,245.825 127.5,245C 159.792,174.619 191.792,104.119 223.5,33.5 Z"/></g>
<g><path style="opacity:1" fill="#010101" d="M 289.5,144.5 C 360.681,177.449 431.681,210.782 502.5,244.5C 469.505,245.667 436.505,245.833 403.5,245C 365.833,227.833 328.167,210.667 290.5,193.5C 289.501,177.18 289.167,160.847 289.5,144.5 Z"/></g>
<g><path style="opacity:1" fill="#141414" d="M 260.5,249.5 C 265.156,248.34 267.823,250.007 268.5,254.5C 268.072,260.022 265.572,264.355 261,267.5C 260.308,266.975 259.808,266.308 259.5,265.5C 260.833,263.5 262.167,261.5 263.5,259.5C 258.448,257.283 257.448,253.95 260.5,249.5 Z"/></g>
<g><path style="opacity:1" fill="#6d6d6d" d="M 66.5,255.5 C 63.4018,254.179 59.9018,253.512 56,253.5C 52.0982,253.512 48.5982,254.179 45.5,255.5C 44.596,254.791 44.2627,253.791 44.5,252.5C 52.1667,252.5 59.8333,252.5 67.5,252.5C 67.7373,253.791 67.404,254.791 66.5,255.5 Z"/></g>
<g><path style="opacity:1" fill="#0c0c0c" d="M 168.5,252.5 C 183.408,250.289 194.575,255.623 202,268.5C 205.802,289.857 196.802,301.523 175,303.5C 158.796,301.962 149.962,293.129 148.5,277C 150.245,264.76 156.912,256.593 168.5,252.5 Z"/></g>
<g><path style="opacity:1" fill="#0d0d0d" d="M 224.5,252.5 C 230.852,251.715 236.686,253.048 242,256.5C 242.483,255.552 242.649,254.552 242.5,253.5C 243.5,253.5 244.5,253.5 245.5,253.5C 245.827,258.214 245.493,262.88 244.5,267.5C 242.915,265.294 241.415,262.961 240,260.5C 235.827,256.809 230.993,255.642 225.5,257C 220.167,261 220.167,265 225.5,269C 233.478,271.404 240.645,275.238 247,280.5C 251.9,291.202 248.733,298.368 237.5,302C 232.5,302.667 227.5,302.667 222.5,302C 220.99,301.15 219.49,300.317 218,299.5C 216.779,300.272 215.779,301.272 215,302.5C 213.905,297.22 213.405,291.887 213.5,286.5C 214.5,286.5 215.5,286.5 216.5,286.5C 216.657,293.161 219.99,297.328 226.5,299C 232.624,300.296 237.457,298.462 241,293.5C 242.041,290.364 241.207,287.864 238.5,286C 232.748,283.526 227.081,280.86 221.5,278C 213.42,271.613 212.42,264.279 218.5,256C 220.727,255.059 222.727,253.892 224.5,252.5 Z"/></g>
<g><path style="opacity:1" fill="#6b6b6b" d="M 295.5,253.5 C 312.325,252.503 329.325,252.17 346.5,252.5C 346.5,253.5 346.5,254.5 346.5,255.5C 329.738,253.536 312.738,252.87 295.5,253.5 Z"/></g>
<g><path style="opacity:1" fill="#0d0d0d" d="M 448.5,253.5 C 450.369,255.635 451.036,258.302 450.5,261.5C 450.5,264.167 450.5,266.833 450.5,269.5C 449.5,269.5 448.5,269.5 447.5,269.5C 444.248,258.04 436.915,254.206 425.5,258C 421.806,260.687 419.306,264.187 418,268.5C 417.333,274.833 417.333,281.167 418,287.5C 420.167,294.849 425,298.516 432.5,298.5C 441.468,299.182 447.134,295.182 449.5,286.5C 450.325,285.614 451.325,285.281 452.5,285.5C 452.5,291.167 452.5,296.833 452.5,302.5C 451.5,302.5 450.5,302.5 449.5,302.5C 449.785,300.712 449.452,299.045 448.5,297.5C 445.779,299.527 442.779,301.027 439.5,302C 416.385,305.545 405.218,295.712 406,272.5C 413.739,252.97 427.239,247.637 446.5,256.5C 447.176,255.398 447.842,254.398 448.5,253.5 Z"/></g>
<g><path style="opacity:1" fill="#6d6d6d" d="M 483.5,255.5 C 480.402,254.179 476.902,253.512 473,253.5C 469.098,253.512 465.598,254.179 462.5,255.5C 461.596,254.791 461.263,253.791 461.5,252.5C 469.167,252.5 476.833,252.5 484.5,252.5C 484.737,253.791 484.404,254.791 483.5,255.5 Z"/></g>
<g><path style="opacity:1" fill="#060606" d="M 66.5,255.5 C 64.2776,255.178 62.4443,255.845 61,257.5C 60.0576,270.57 60.3909,283.57 62,296.5C 62.5,297 63,297.5 63.5,298C 69.9172,298.87 76.2506,298.536 82.5,297C 84.7809,293.955 86.7809,290.788 88.5,287.5C 89.2592,292.463 89.2592,297.463 88.5,302.5C 73.8333,302.5 59.1667,302.5 44.5,302.5C 44.5,301.5 44.5,300.5 44.5,299.5C 47.5468,300.145 49.7135,299.145 51,296.5C 51.6667,283.833 51.6667,271.167 51,258.5C 49.7365,256.393 47.9032,255.393 45.5,255.5C 48.5982,254.179 52.0982,253.512 56,253.5C 59.9018,253.512 63.4018,254.179 66.5,255.5 Z"/></g>
<g><path style="opacity:1" fill="#0e0e0e" d="M 112.5,256.5 C 111.51,262.645 111.177,268.978 111.5,275.5C 114.385,275.806 117.052,275.473 119.5,274.5C 120.552,274.649 121.552,274.483 122.5,274C 124.087,271.594 125.753,269.428 127.5,267.5C 128.12,273.926 127.453,279.926 125.5,285.5C 125.067,282.805 123.734,280.638 121.5,279C 118.183,278.502 114.85,278.335 111.5,278.5C 111.334,283.844 111.501,289.177 112,294.5C 112.833,296 114,297.167 115.5,298C 120.5,298.667 125.5,298.667 130.5,298C 135.183,296.151 137.516,292.651 137.5,287.5C 138.5,287.5 139.5,287.5 140.5,287.5C 139.836,292.473 139.503,297.473 139.5,302.5C 124.833,302.5 110.167,302.5 95.5,302.5C 95.5,301.5 95.5,300.5 95.5,299.5C 98.0444,299.896 100.211,299.229 102,297.5C 102.667,284.167 102.667,270.833 102,257.5C 100.556,255.845 98.7224,255.178 96.5,255.5C 96.5,254.5 96.5,253.5 96.5,252.5C 110.167,252.5 123.833,252.5 137.5,252.5C 137.5,256.833 137.5,261.167 137.5,265.5C 136.5,265.5 135.5,265.5 134.5,265.5C 134.854,262.039 133.521,259.539 130.5,258C 124.593,256.639 118.593,256.139 112.5,256.5 Z"/></g>
<g><path style="opacity:1" fill="#060606" d="M 295.5,253.5 C 312.738,252.87 329.738,253.536 346.5,255.5C 346.823,259.226 346.489,262.893 345.5,266.5C 344.052,264.333 342.885,262 342,259.5C 341.097,258.299 339.931,257.465 338.5,257C 334.245,256.204 330.079,256.371 326,257.5C 325.333,270.5 325.333,283.5 326,296.5C 328.196,299.125 331.03,300.125 334.5,299.5C 334.5,300.5 334.5,301.5 334.5,302.5C 325.5,302.5 316.5,302.5 307.5,302.5C 307.5,301.5 307.5,300.5 307.5,299.5C 311.355,300.155 314.188,298.821 316,295.5C 316.667,282.833 316.667,270.167 316,257.5C 311.587,256.368 307.087,256.201 302.5,257C 298.887,259.12 297.22,262.287 297.5,266.5C 295.744,265.448 295.077,263.781 295.5,261.5C 295.5,258.833 295.5,256.167 295.5,253.5 Z"/></g>
<g><path style="opacity:1" fill="#0e0e0e" d="M 369.5,256.5 C 368.51,262.645 368.177,268.978 368.5,275.5C 371.385,275.806 374.052,275.473 376.5,274.5C 377.552,274.649 378.552,274.483 379.5,274C 381.087,271.594 382.753,269.428 384.5,267.5C 385.12,273.926 384.453,279.926 382.5,285.5C 382.067,282.805 380.734,280.638 378.5,279C 375.183,278.502 371.85,278.335 368.5,278.5C 368.334,283.844 368.501,289.177 369,294.5C 369.833,296 371,297.167 372.5,298C 377.5,298.667 382.5,298.667 387.5,298C 392.183,296.151 394.516,292.651 394.5,287.5C 395.5,287.5 396.5,287.5 397.5,287.5C 396.836,292.473 396.503,297.473 396.5,302.5C 381.833,302.5 367.167,302.5 352.5,302.5C 352.5,301.5 352.5,300.5 352.5,299.5C 355.044,299.896 357.211,299.229 359,297.5C 359.667,284.167 359.667,270.833 359,257.5C 357.556,255.845 355.722,255.178 353.5,255.5C 353.5,254.5 353.5,253.5 353.5,252.5C 367.167,252.5 380.833,252.5 394.5,252.5C 394.5,256.833 394.5,261.167 394.5,265.5C 393.5,265.5 392.5,265.5 391.5,265.5C 391.854,262.039 390.521,259.539 387.5,258C 381.593,256.639 375.593,256.139 369.5,256.5 Z"/></g>
<g><path style="opacity:1" fill="#0b0b0b" d="M 500.5,296.5 C 501.49,290.69 501.823,284.69 501.5,278.5C 493.316,278.174 485.316,278.508 477.5,279.5C 477.334,285.509 477.501,291.509 478,297.5C 479.789,299.229 481.956,299.896 484.5,299.5C 484.5,300.5 484.5,301.5 484.5,302.5C 476.804,302.831 469.138,302.497 461.5,301.5C 463.422,300.289 465.255,298.956 467,297.5C 467.667,284.167 467.667,270.833 467,257.5C 465.89,255.963 464.39,255.297 462.5,255.5C 465.598,254.179 469.098,253.512 473,253.5C 476.902,253.512 480.402,254.179 483.5,255.5C 481.278,255.178 479.444,255.845 478,257.5C 477.501,263.157 477.334,268.824 477.5,274.5C 485.316,275.492 493.316,275.826 501.5,275.5C 501.822,269.642 501.489,263.975 500.5,258.5C 499.313,256.025 497.313,255.025 494.5,255.5C 494.5,254.5 494.5,253.5 494.5,252.5C 501.833,252.5 509.167,252.5 516.5,252.5C 516.5,253.5 516.5,254.5 516.5,255.5C 514.278,255.178 512.444,255.845 511,257.5C 510.333,270.833 510.333,284.167 511,297.5C 512.789,299.229 514.956,299.896 517.5,299.5C 517.5,300.5 517.5,301.5 517.5,302.5C 509.5,302.5 501.5,302.5 493.5,302.5C 493.5,301.5 493.5,300.5 493.5,299.5C 495.527,299.662 497.527,299.495 499.5,299C 500.252,298.329 500.586,297.496 500.5,296.5 Z"/></g>
<g><path style="opacity:1" fill="#fafafa" d="M 171.5,256.5 C 182.245,255.409 189.079,260.075 192,270.5C 192.961,277.336 192.295,284.003 190,290.5C 185.464,297.844 178.964,300.344 170.5,298C 164.459,295.111 160.959,290.277 160,283.5C 157.877,271.765 161.71,262.765 171.5,256.5 Z"/></g>
<g><path style="opacity:1" fill="#7f7f7f" d="M 112.5,256.5 C 112.5,262.5 112.5,268.5 112.5,274.5C 114.833,274.5 117.167,274.5 119.5,274.5C 117.052,275.473 114.385,275.806 111.5,275.5C 111.177,268.978 111.51,262.645 112.5,256.5 Z"/></g>
<g><path style="opacity:1" fill="#7f7f7f" d="M 369.5,256.5 C 369.5,262.5 369.5,268.5 369.5,274.5C 371.833,274.5 374.167,274.5 376.5,274.5C 374.052,275.473 371.385,275.806 368.5,275.5C 368.177,268.978 368.51,262.645 369.5,256.5 Z"/></g>
<g><path style="opacity:1" fill="#7f7f7f" d="M 448.5,253.5 C 449.209,252.596 450.209,252.263 451.5,252.5C 451.81,255.713 451.477,258.713 450.5,261.5C 451.036,258.302 450.369,255.635 448.5,253.5 Z"/></g>
<g><path style="opacity:1" fill="#9c9c9c" d="M 295.5,261.5 C 295.077,263.781 295.744,265.448 297.5,266.5C 296.791,267.404 295.791,267.737 294.5,267.5C 294.205,265.265 294.539,263.265 295.5,261.5 Z"/></g>
<g><path style="opacity:1" fill="#b6b6b6" d="M 127.5,267.5 C 128.49,273.645 128.823,279.978 128.5,286.5C 127.209,286.737 126.209,286.404 125.5,285.5C 127.453,279.926 128.12,273.926 127.5,267.5 Z"/></g>
<g><path style="opacity:1" fill="#b6b6b6" d="M 384.5,267.5 C 385.49,273.645 385.823,279.978 385.5,286.5C 384.209,286.737 383.209,286.404 382.5,285.5C 384.453,279.926 385.12,273.926 384.5,267.5 Z"/></g>
<g><path style="opacity:1" fill="#9d9d9d" d="M 500.5,258.5 C 501.489,263.975 501.822,269.642 501.5,275.5C 493.316,275.826 485.316,275.492 477.5,274.5C 485.167,274.5 492.833,274.5 500.5,274.5C 500.5,269.167 500.5,263.833 500.5,258.5 Z"/></g>
<g><path style="opacity:1" fill="#848484" d="M 477.5,279.5 C 485.316,278.508 493.316,278.174 501.5,278.5C 501.823,284.69 501.49,290.69 500.5,296.5C 500.5,290.833 500.5,285.167 500.5,279.5C 492.833,279.5 485.167,279.5 477.5,279.5 Z"/></g>
<g><path style="opacity:1" fill="#010101" d="M 81.5,456.5 C 64.6583,456.83 47.9916,456.497 31.5,455.5C 52.6524,409.193 73.8191,362.859 95,316.5C 111.769,315.176 128.603,315.176 145.5,316.5C 124.152,363.193 102.819,409.859 81.5,456.5 Z"/></g>
<g><path style="opacity:1" fill="#010101" d="M 345.5,315.5 C 379.835,315.333 414.168,315.5 448.5,316C 395.591,340.705 342.758,365.538 290,390.5C 289.333,374.167 289.333,357.833 290,341.5C 308.756,333.203 327.256,324.536 345.5,315.5 Z"/></g>
<g><path style="opacity:1" fill="#bfbfbf" d="M 31.5,455.5 C 47.9916,456.497 64.6583,456.83 81.5,456.5C 64.662,457.827 47.662,457.827 30.5,456.5C 30.6236,455.893 30.9569,455.56 31.5,455.5 Z"/></g>
</svg>
